{"asset":{"generator":"Khronos glTF Spline I/O v0.0.1","version":"2.0"},"scenes":[{"nodes":[0]}],"nodes":[{"name":"","children":[1,2,3,4,5,6,7,8,9,10,11,12,13]},{"name":"Cube 6","matrix":[2.220446049250313e-16,0,-1,0,0,1,0,0,1,0,2.220446049250313e-16,0,17.45424479711714,-1.285292213803345,-3.7452356405046743,1],"mesh":0},{"name":"Cube 5","matrix":[-0.0516916137750536,-0.00021174852551845546,0.9986630724262778,0,-0.008187147317233898,0.9999664623282962,-0.00021174852551845546,0,-0.998629534754574,-0.008187147317233898,-0.0516916137750536,0,-52.89814362776093,13.019092518179832,-6.536330341760738,1],"mesh":1},{"name":"Cube 4","matrix":[1,0,0,0,0,1,0,0,0,0,1,0,69.8686129538255,-11.011535551264387,19.290729588051192,1],"mesh":2},{"name":"Directional Light","translation":[-7.299725608469316,139.27876460959448,276.2216172916462],"rotation":[-0.2315848135042597,-0.006064622545229755,0.025466339665816698,0.9724624208943019],"extensions":{"KHR_lights_punctual":{"light":0}}},{"name":"Cube 3","matrix":[1,0,0,0,0,1,0,0,0,0,1,0,-70.1313870461745,-14.011535551264387,19.290729588051192,1],"mesh":3},{"name":"Torus 3","matrix":[0.9320555204492735,-0.3623154796583779,0,0,0.3623154796583779,0.9320555204492735,0,0,0,0,1,0,-26.125199495773643,-1.0096623080253773,62.9152216717133,1],"mesh":4},{"name":"Torus 2","matrix":[0.8598552267041549,-0.5105379409109503,0,0,0.5105379409109503,0.8598552267041549,0,0,0,0,1,0,24.30799103939992,-0.8760433783725272,62.9152216717133,1],"mesh":5},{"name":"Torus","matrix":[-0.5133220420449868,0.8533672247700724,0.09091128004291729,0,-0.8569157165038203,-0.5154565498747641,1.3877787807814805e-17,0,0.04686081475561825,-0.07790330467625194,0.9958589956218494,0,0.7878559298304566,-43.949268660117596,57.62499999999999,1],"mesh":6},{"name":"Nose","matrix":[1,0,0,0,0,1,0,0,0,0,1,0,0.8349532332499443,-29.270460706078666,61.31627539873209,1],"mesh":7},{"name":"Cube 2","matrix":[1,0,0,0,0,1,0,0,0,0,1,0,23.83495323324994,-7.270460706078666,61.31627539873209,1],"mesh":8},{"name":"Cube 2","matrix":[1,0,0,0,0,1,0,0,0,0,1,0,-26.16504676675006,-7.270460706078666,61.31627539873209,1],"mesh":9},{"name":"Cube","matrix":[1,0,0,0,0,1,0,0,0,0,1,0,0,0,0,1],"mesh":10},{"name":"Personal Camera","camera":0,"translation":[-1.5542169816623108,4.800836715380804,262.22244823625084],"rotation":[0.007424688895454246,-0.0426051145598631,0.00031663342838927975,0.9990643512564238]}],"cameras":[{"type":"orthographic","orthographic":{"xmag":1848,"ymag":1016,"zfar":100000,"znear":-100000}}],"meshes":[{"primitives":[{"attributes":{"POSITION":1,"NORMAL":2,"RANDOMCOLOR":3},"indices":0}]},{"primitives":[{"attributes":{"POSITION":5,"NORMAL":6,"RANDOMCOLOR":7},"indices":4}]},{"primitives":[{"attributes":{"POSITION":9,"NORMAL":10},"indices":8}]},{"primitives":[{"attributes":{"POSITION":12,"NORMAL":13},"indices":11}]},{"primitives":[{"attributes":{"POSITION":15,"NORMAL":16,"TEXCOORD_0":17},"indices":14}]},{"primitives":[{"attributes":{"POSITION":19,"NORMAL":20,"TEXCOORD_0":21},"indices":18}]},{"primitives":[{"attributes":{"POSITION":23,"NORMAL":24,"TEXCOORD_0":25},"indices":22}]},{"primitives":[{"attributes":{"POSITION":27,"NORMAL":28,"FACEMAP":29,"COLOR":30},"indices":26}]},{"primitives":[{"attributes":{"POSITION":32,"NORMAL":33,"TEXCOORD_0":34},"indices":31}]},{"primitives":[{"attributes":{"POSITION":36,"NORMAL":37,"TEXCOORD_0":38},"indices":35}]},{"primitives":[{"attributes":{"POSITION":40,"NORMAL":41},"indices":39}]}],"buffers":[{"uri":"data:application/octet-stream;base64,","byteLength":6720},{"uri":"data:application/octet-stream;base64,","byteLength":26880},{"uri":"data:application/octet-stream;base64,","byteLength":26880},{"uri":"data:application/octet-stream;base64,","byteLength":26880},{"uri":"data:application/octet-stream;base64,","byteLength":15744},{"uri":"data:application/octet-stream;base64,","byteLength":15744},{"uri":"data:application/octet-stream;base64,","byteLength":19008},{"uri":"data:application/octet-stream;base64,","byteLength":18432},{"uri":"data:application/octet-stream;base64,","byteLength":23496},{"uri":"data:application/octet-stream;base64,","byteLength":23496},{"uri":"data:application/octet-stream;base64,","byteLength":46080}],"bufferViews":[{"buffer":0,"byteOffset":0,"byteLength":960,"target":34963},{"buffer":0,"byteOffset":960,"byteLength":1920,"target":34962},{"buffer":0,"byteOffset":2880,"byteLength":1920,"target":34962},{"buffer":0,"byteOffset":4800,"byteLength":1920,"target":34962},{"buffer":1,"byteOffset":0,"byteLength":3840,"target":34963},{"buffer":1,"byteOffset":3840,"byteLength":7680,"target":34962},{"buffer":1,"byteOffset":11520,"byteLength":7680,"target":34962},{"buffer":1,"byteOffset":19200,"byteLength":7680,"target":34962},{"buffer":2,"byteOffset":0,"byteLength":5376,"target":34963},{"buffer":2,"byteOffset":5376,"byteLength":10752,"target":34962},{"buffer":2,"byteOffset":16128,"byteLength":10752,"target":34962},{"buffer":3,"byteOffset":0,"byteLength":5376,"target":34963},{"buffer":3,"byteOffset":5376,"byteLength":10752,"target":34962},{"buffer":3,"byteOffset":16128,"byteLength":10752,"target":34962},{"buffer":4,"byteOffset":0,"byteLength":3744,"target":34963},{"buffer":4,"byteOffset":3744,"byteLength":4500,"target":34962},{"buffer":4,"byteOffset":8244,"byteLength":4500,"target":34962},{"buffer":4,"byteOffset":12744,"byteLength":3000,"target":34962},{"buffer":5,"byteOffset":0,"byteLength":3744,"target":34963},{"buffer":5,"byteOffset":3744,"byteLength":4500,"target":34962},{"buffer":5,"byteOffset":8244,"byteLength":4500,"target":34962},{"buffer":5,"byteOffset":12744,"byteLength":3000,"target":34962},{"buffer":6,"byteOffset":0,"byteLength":4608,"target":34963},{"buffer":6,"byteOffset":4608,"byteLength":5400,"target":34962},{"buffer":6,"byteOffset":10008,"byteLength":5400,"target":34962},{"buffer":6,"byteOffset":15408,"byteLength":3600,"target":34962},{"buffer":7,"byteOffset":0,"byteLength":2304,"target":34963},{"buffer":7,"byteOffset":2304,"byteLength":4608,"target":34962},{"buffer":7,"byteOffset":6912,"byteLength":4608,"target":34962},{"buffer":7,"byteOffset":11520,"byteLength":768,"target":34962},{"buffer":7,"byteOffset":12288,"byteLength":6144,"target":34962},{"buffer":8,"byteOffset":0,"byteLength":4296,"target":34963},{"buffer":8,"byteOffset":4296,"byteLength":7200,"target":34962},{"buffer":8,"byteOffset":11496,"byteLength":7200,"target":34962},{"buffer":8,"byteOffset":18696,"byteLength":4800,"target":34962},{"buffer":9,"byteOffset":0,"byteLength":4296,"target":34963},{"buffer":9,"byteOffset":4296,"byteLength":7200,"target":34962},{"buffer":9,"byteOffset":11496,"byteLength":7200,"target":34962},{"buffer":9,"byteOffset":18696,"byteLength":4800,"target":34962},{"buffer":10,"byteOffset":0,"byteLength":9216,"target":34963},{"buffer":10,"byteOffset":9216,"byteLength":18432,"target":34962},{"buffer":10,"byteOffset":27648,"byteLength":18432,"target":34962}],"accessors":[{"bufferView":0,"byteOffset":0,"componentType":5125,"count":240,"type":"SCALAR","min":[0],"max":[159]},{"bufferView":1,"byteOffset":0,"componentType":5126,"count":160,"type":"VEC3","min":[-57.35478973388672,-55.27853012084961,-72.91287231445312],"max":[72.74994659423828,85.11865997314453,67.62980651855469]},{"bufferView":2,"byteOffset":0,"componentType":5126,"count":160,"type":"VEC3","min":[-0.9873475432395935,-0.9996952414512634,-0.9995602369308472],"max":[0.9918081760406494,0.9953007102012634,0.9972243309020996]},{"bufferView":3,"byteOffset":0,"componentType":5126,"count":160,"type":"VEC3","min":[0.5529819130897522,0.5529819130897522,0.5529819130897522],"max":[0.5529819130897522,0.5529819130897522,0.5529819130897522]},{"bufferView":4,"byteOffset":0,"componentType":5125,"count":960,"type":"SCALAR","min":[0],"max":[639]},{"bufferView":5,"byteOffset":0,"componentType":5126,"count":640,"type":"VEC3","min":[-70.2077407836914,-70.11422729492188,-87.24366760253906],"max":[77.708251953125,67.85694885253906,25.82137680053711]},{"bufferView":6,"byteOffset":0,"componentType":5126,"count":640,"type":"VEC3","min":[-0.9996217489242554,-0.9781773090362549,-0.9943328499794006],"max":[0.9505109190940857,0.995682954788208,0.9923428893089294]},{"bufferView":7,"byteOffset":0,"componentType":5126,"count":640,"type":"VEC3","min":[0.08624875545501709,0.699407160282135,0.1018221527338028],"max":[0.08624875545501709,0.699407160282135,0.1018221527338028]},{"bufferView":8,"byteOffset":0,"componentType":5125,"count":1344,"type":"SCALAR","min":[0],"max":[895]},{"bufferView":9,"byteOffset":0,"componentType":5126,"count":896,"type":"VEC3","min":[-10.723505020141602,-10.723505020141602,-3.210538864135742],"max":[10.723505020141602,10.723505020141602,3.6546850204467773]},{"bufferView":10,"byteOffset":0,"componentType":5126,"count":896,"type":"VEC3","min":[-0.9974267482757568,-0.9974267482757568,-1],"max":[0.9974267482757568,0.9974267482757568,1]},{"bufferView":11,"byteOffset":0,"componentType":5125,"count":1344,"type":"SCALAR","min":[0],"max":[895]},{"bufferView":12,"byteOffset":0,"componentType":5126,"count":896,"type":"VEC3","min":[-10.723505020141602,-10.723505020141602,-3.210538864135742],"max":[10.723505020141602,10.723505020141602,3.6546850204467773]},{"bufferView":13,"byteOffset":0,"componentType":5126,"count":896,"type":"VEC3","min":[-0.9974267482757568,-0.9974267482757568,-1],"max":[0.9974267482757568,0.9974267482757568,1]},{"bufferView":14,"byteOffset":0,"componentType":5123,"count":1872,"type":"SCALAR","min":[1],"max":[373]},{"bufferView":15,"byteOffset":0,"componentType":5126,"count":375,"type":"VEC3","min":[-11.060538291931152,2.07905650138855,-2.625499963760376],"max":[2.625,10.69281005859375,2.625499963760376]},{"bufferView":16,"byteOffset":0,"componentType":5126,"count":375,"type":"VEC3","min":[-0.9849661588668823,-1,-1],"max":[1,1,1]},{"bufferView":17,"byteOffset":0,"componentType":5126,"count":375,"type":"VEC2","min":[0,0],"max":[1,1]},{"bufferView":18,"byteOffset":0,"componentType":5123,"count":1872,"type":"SCALAR","min":[1],"max":[373]},{"bufferView":19,"byteOffset":0,"componentType":5126,"count":375,"type":"VEC3","min":[-11.060538291931152,2.07905650138855,-2.625499963760376],"max":[2.625,10.69281005859375,2.625499963760376]},{"bufferView":20,"byteOffset":0,"componentType":5126,"count":375,"type":"VEC3","min":[-0.9849661588668823,-1,-1],"max":[1,1,1]},{"bufferView":21,"byteOffset":0,"componentType":5126,"count":375,"type":"VEC2","min":[0,0],"max":[1,1]},{"bufferView":22,"byteOffset":0,"componentType":5123,"count":2304,"type":"SCALAR","min":[1],"max":[448]},{"bufferView":23,"byteOffset":0,"componentType":5126,"count":450,"type":"VEC3","min":[-12.2014799118042,-7.301242828369141,-2.625499963760376],"max":[2.625,11.808842658996582,2.625499963760376]},{"bufferView":24,"byteOffset":0,"componentType":5126,"count":450,"type":"VEC3","min":[-0.9969989061355591,-1,-1],"max":[1,1,1]},{"bufferView":25,"byteOffset":0,"componentType":5126,"count":450,"type":"VEC2","min":[0,0],"max":[1,1]},{"bufferView":26,"byteOffset":0,"componentType":5125,"count":576,"type":"SCALAR","min":[0],"max":[383]},{"bufferView":27,"byteOffset":0,"componentType":5126,"count":384,"type":"VEC3","min":[-4.705747604370117,-8.40469741821289,-4.392361164093018],"max":[4.705747604370117,11.72486686706543,4.392361164093018]},{"bufferView":28,"byteOffset":0,"componentType":5126,"count":384,"type":"VEC3","min":[-0.999860405921936,-0.9086776375770569,-0.9998781681060791],"max":[0.999860405921936,0.4753224551677704,0.9998781681060791]},{"bufferView":29,"byteOffset":0,"componentType":5125,"count":192,"type":"SCALAR","min":[0],"max":[191]},{"bufferView":30,"byteOffset":0,"componentType":5126,"count":384,"type":"VEC4","min":[0,0,0,0],"max":[0,0,0,0]},{"bufferView":31,"byteOffset":0,"componentType":5123,"count":2148,"type":"SCALAR","min":[0],"max":[599]},{"bufferView":32,"byteOffset":0,"componentType":5126,"count":600,"type":"VEC3","min":[-5.356740474700928,-9.567402839660645,-5],"max":[5.356740474700928,9.567402839660645,5]},{"bufferView":33,"byteOffset":0,"componentType":5126,"count":600,"type":"VEC3","min":[-1,-1,-1],"max":[1,1,1]},{"bufferView":34,"byteOffset":0,"componentType":5126,"count":600,"type":"VEC2","min":[0,0],"max":[1,1]},{"bufferView":35,"byteOffset":0,"componentType":5123,"count":2148,"type":"SCALAR","min":[0],"max":[599]},{"bufferView":36,"byteOffset":0,"componentType":5126,"count":600,"type":"VEC3","min":[-5.356740474700928,-9.567402839660645,-5],"max":[5.356740474700928,9.567402839660645,5]},{"bufferView":37,"byteOffset":0,"componentType":5126,"count":600,"type":"VEC3","min":[-1,-1,-1],"max":[1,1,1]},{"bufferView":38,"byteOffset":0,"componentType":5126,"count":600,"type":"VEC2","min":[0,0],"max":[1,1]},{"bufferView":39,"byteOffset":0,"componentType":5125,"count":2304,"type":"SCALAR","min":[0],"max":[1535]},{"bufferView":40,"byteOffset":0,"componentType":5126,"count":1536,"type":"VEC3","min":[-69.63238525390625,-82.54984283447266,-62.923431396484375],"max":[69.63238525390625,66.2066421508789,65.55828094482422]},{"bufferView":41,"byteOffset":0,"componentType":5126,"count":1536,"type":"VEC3","min":[-0.9999998807907104,-0.9998138546943665,-0.9996257424354553],"max":[0.9999998807907104,0.9996917247772217,0.9999558925628662]}],"extensions":{"KHR_lights_punctual":{"lights":[{"type":"directional","name":"Directional Light","color":[1,1,1],"intensity":1}]}},"extensionsUsed":["KHR_lights_punctual"]}